<?xml version="1.0" standalone="no"?>
<!DOCTYPE svg PUBLIC "-//W3C//DTD SVG 20010904//EN"
 "http://www.w3.org/TR/2001/REC-SVG-20010904/DTD/svg10.dtd">
<svg version="1.0" xmlns="http://www.w3.org/2000/svg"
 width="656.000000pt" height="656.000000pt" viewBox="0 0 656.000000 656.000000"
 preserveAspectRatio="xMidYMid meet">
<metadata>
Created by potrace 1.14, written by Peter Selinger 2001-2017
</metadata>
<g transform="translate(0.000000,656.000000) scale(0.100000,-0.100000)"
fill="#000000" stroke="none">
<path d="M2317 4816 c-79 -29 -149 -102 -173 -182 -20 -69 -21 -719 0 -711 7
3 74 48 147 99 74 52 191 133 260 181 69 47 132 93 139 101 9 12 11 53 8 158
-5 172 -22 223 -99 292 -79 71 -189 95 -282 62z"/>
<path d="M3183 4760 c-54 -24 -111 -83 -143 -145 -25 -49 -25 -55 -28 -310
l-2 -260 97 -100 c54 -56 150 -157 213 -225 63 -69 148 -159 187 -200 l73 -75
0 388 0 388 483 -4 c462 -4 485 -5 562 -26 315 -88 539 -345 617 -706 7 -35
12 -125 12 -215 0 -150 -7 -199 -50 -346 -4 -17 21 -53 126 -175 72 -84 159
-188 193 -231 34 -42 67 -77 73 -78 16 0 118 221 148 321 89 294 103 564 45
852 -41 206 -116 389 -229 557 -76 115 -253 295 -361 368 -106 71 -256 144
-369 180 -191 60 -217 62 -944 61 -622 0 -663 -2 -703 -19z m1467 -126 c251
-51 462 -165 645 -349 153 -153 248 -307 320 -519 58 -171 96 -449 73 -533
-26 -96 -131 -141 -218 -94 -56 30 -72 69 -82 195 -25 358 -162 637 -402 820
-147 113 -298 169 -501 187 -136 12 -178 28 -212 78 -38 57 -27 160 21 200 52
44 185 49 356 15z"/>
<path d="M4353 4605 c-42 -18 -66 -57 -66 -107 0 -35 6 -47 35 -73 32 -30 40
-32 139 -38 366 -24 673 -225 834 -547 77 -154 119 -314 131 -500 8 -119 13
-133 57 -160 62 -38 137 -16 164 48 12 29 14 58 8 142 -21 337 -149 640 -363
862 -112 117 -217 195 -345 258 -127 62 -244 96 -400 115 -146 18 -153 18
-194 0z"/>
<path d="M2615 4202 c-38 -26 -94 -65 -124 -86 -30 -21 -89 -62 -130 -91 -248
-170 -231 -155 -231 -197 0 -29 3 -37 13 -32 46 28 512 356 535 377 21 19 32
77 15 77 -5 0 -39 -22 -78 -48z"/>
<path d="M2570 4049 c-470 -328 -435 -301 -438 -342 -2 -20 0 -37 3 -37 7 0
79 49 285 195 69 49 154 108 190 133 36 24 71 51 78 60 13 17 17 72 5 71 -5 0
-60 -36 -123 -80z"/>
<path d="M2403 3808 l-273 -190 0 -40 0 -40 68 48 c86 60 182 127 252 175 30
21 98 69 150 107 82 59 95 73 98 100 2 22 -1 32 -10 31 -7 0 -136 -86 -285
-191z"/>
<path d="M3010 3939 c0 -38 8 -48 153 -202 83 -89 208 -222 276 -294 68 -73
127 -133 132 -133 5 0 9 18 9 40 0 31 -7 47 -27 68 -16 15 -95 99 -178 187
-241 258 -353 375 -359 375 -3 0 -6 -18 -6 -41z"/>
<path d="M2550 3785 c-74 -51 -196 -135 -270 -186 -74 -50 -139 -98 -143 -105
-5 -8 -7 -28 -5 -45 l3 -31 100 70 c55 39 120 85 145 102 25 17 104 72 175
122 72 50 133 96 137 102 10 14 10 66 1 66 -5 0 -69 -43 -143 -95z"/>
<path d="M3010 3797 c0 -47 2 -50 93 -145 186 -195 265 -279 361 -384 54 -60
102 -108 107 -108 5 0 9 19 9 41 0 40 -6 48 -103 148 -57 58 -170 178 -252
266 -81 88 -163 176 -182 195 l-33 35 0 -48z"/>
<path d="M2570 3676 c-58 -41 -157 -110 -220 -152 -212 -143 -220 -150 -220
-190 0 -45 0 -45 131 48 57 41 153 108 212 149 211 145 227 158 227 190 0 17
-5 29 -12 29 -7 0 -60 -34 -118 -74z"/>
<path d="M3010 3650 c1 -44 4 -49 123 -177 337 -363 432 -463 439 -463 4 0 8
18 8 40 0 39 -9 50 -222 277 -123 131 -251 267 -285 303 l-63 65 0 -45z"/>
<path d="M2666 3622 c-2 -4 -93 -68 -201 -142 -108 -74 -228 -157 -266 -183
l-69 -48 0 -255 c0 -279 -11 -367 -56 -456 -68 -134 -167 -190 -364 -208 -251
-22 -378 21 -549 185 -111 106 -161 135 -242 142 -167 16 -304 -112 -304 -282
0 -59 5 -79 29 -123 41 -74 203 -226 331 -311 191 -125 329 -170 560 -178 377
-14 644 68 853 262 146 135 236 312 282 554 18 95 20 153 23 579 1 360 -1 472
-10 472 -6 0 -14 -4 -17 -8z m-206 -646 c42 -9 89 -66 99 -121 22 -111 -26
-370 -94 -511 -66 -138 -195 -274 -325 -343 -117 -62 -320 -111 -460 -111 -70
0 -133 29 -160 72 -27 42 -24 131 5 170 35 47 70 60 185 69 243 19 395 109
480 282 41 85 59 162 69 293 9 115 15 137 49 168 25 22 91 46 112 41 8 -2 26
-6 40 -9z"/>
<path d="M2339 2912 c-31 -28 -33 -32 -45 -158 -29 -283 -122 -443 -309 -529
-88 -41 -143 -53 -278 -64 -98 -7 -110 -10 -136 -35 -56 -54 -46 -134 22 -177
28 -18 43 -20 132 -15 415 23 699 260 780 651 21 104 30 231 18 275 -20 76
-124 105 -184 52z"/>
<path d="M3010 3500 c0 -38 9 -50 177 -232 242 -265 379 -408 388 -408 12 0
-1 104 -13 108 -6 2 -130 131 -277 288 -147 156 -269 284 -271 284 -2 0 -4
-18 -4 -40z"/>
<path d="M3010 3349 c0 -39 6 -49 68 -113 37 -39 132 -141 212 -226 80 -85
177 -189 217 -230 l73 -75 0 43 c0 41 -5 50 -67 115 -166 176 -218 231 -348
372 -77 83 -143 152 -147 153 -4 2 -8 -15 -8 -39z"/>
<path d="M3012 2603 l3 -638 23 -42 c30 -58 86 -111 141 -137 45 -21 59 -21
646 -24 376 -2 642 1 713 8 216 20 424 91 610 206 39 25 72 49 72 52 0 4 -38
51 -84 104 -46 53 -123 146 -171 205 -49 59 -92 112 -95 116 -4 5 -32 -5 -61
-22 -30 -16 -97 -45 -149 -63 l-95 -33 -492 -3 -493 -3 0 157 0 157 -52 56
c-28 31 -90 97 -137 146 -47 50 -149 159 -225 243 -77 83 -144 152 -148 152
-5 0 -7 -287 -6 -637z m1475 -427 c48 -29 76 -88 71 -146 -6 -64 -30 -97 -83
-121 -42 -19 -70 -19 -639 -17 -583 3 -595 3 -622 24 -52 38 -69 71 -68 130 0
66 22 100 85 132 l44 22 590 -2 c560 -3 592 -4 622 -22z"/>
<path d="M3252 2149 c-96 -28 -92 -181 5 -209 26 -8 216 -10 621 -8 l584 3 29
33 c52 58 33 149 -38 178 -26 11 -142 14 -600 13 -325 0 -582 -5 -601 -10z"/>
<path d="M5168 2836 c-10 -23 -9 -32 2 -51 14 -22 136 -169 278 -335 96 -112
89 -105 106 -90 9 7 16 20 16 29 0 12 -318 402 -380 465 -5 5 -14 -2 -22 -18z"/>
<path d="M5110 2729 c-9 -16 -8 -24 2 -37 8 -9 46 -53 84 -97 80 -93 102 -120
204 -244 l74 -92 18 23 c10 13 18 27 18 31 0 5 -66 86 -148 180 -81 95 -163
191 -181 215 -38 47 -55 52 -71 21z"/>
<path d="M5055 2646 l-17 -26 119 -137 c65 -76 147 -173 182 -215 35 -43 67
-78 72 -78 4 0 15 10 23 22 14 20 13 24 -21 67 -21 25 -67 80 -104 121 -37 41
-102 118 -144 170 -42 52 -80 96 -85 98 -5 2 -16 -8 -25 -22z"/>
<path d="M4985 2570 c-17 -19 -16 -21 31 -76 53 -60 140 -165 244 -293 36 -44
70 -80 76 -80 6 -1 19 8 29 19 18 20 18 21 -7 48 -55 60 -75 83 -206 240 -75
89 -139 162 -142 162 -4 0 -15 -9 -25 -20z"/>
<path d="M4918 2509 c-10 -5 -18 -16 -18 -24 0 -8 55 -79 123 -157 67 -79 145
-171 172 -206 51 -63 73 -74 95 -47 14 17 15 15 -183 249 -65 76 -128 151
-140 167 -23 32 -25 33 -49 18z"/>
</g>
</svg>
